<?xml version="1.0" encoding="UTF-8" standalone="no"?>
<svg
   width="154"
   height="34"
   viewBox="0 0 154 34"
   fill="none"
   version="1.1"
   id="svg136"
   shape-rendering="auto"
   xmlns="http://www.w3.org/2000/svg"
   xmlns:svg="http://www.w3.org/2000/svg">
  <defs
     id="defs140" />
  <g
     id="g419"
     transform="matrix(0.98135427,0,0,0.98135427,-0.83807663,-4.5112856)">
    <path
       d="m 32.704,28.928 h 6.832 V 31 h -9.38 V 11.484 h 2.548 z M 55.8499,15.656 V 31 h -2.548 v -2.268 c -0.4853,0.784 -1.1666,1.4 -2.044,1.848 -0.8586,0.4293 -1.8106,0.644 -2.856,0.644 -1.1946,0 -2.268,-0.2427 -3.22,-0.728 -0.952,-0.504 -1.708,-1.2507 -2.268,-2.24 -0.5413,-0.9893 -0.812,-2.1933 -0.812,-3.612 v -8.988 h 2.52 v 8.652 c 0,1.512 0.3827,2.6787 1.148,3.5 0.7654,0.8027 1.8107,1.204 3.136,1.204 1.3627,0 2.436,-0.42 3.22,-1.26 0.784,-0.84 1.176,-2.0627 1.176,-3.668 v -8.428 z m 22.7542,-0.28 c 1.1947,0 2.2587,0.252 3.192,0.756 0.9333,0.4853 1.6707,1.2227 2.212,2.212 0.5413,0.9893 0.812,2.1933 0.812,3.612 V 31 h -2.52 v -8.68 c 0,-1.5307 -0.3827,-2.6973 -1.148,-3.5 -0.7467,-0.8213 -1.764,-1.232 -3.052,-1.232 -1.3253,0 -2.38,0.4293 -3.164,1.288 -0.784,0.84 -1.176,2.0627 -1.176,3.668 V 31 h -2.52 v -8.68 c 0,-1.5307 -0.3827,-2.6973 -1.148,-3.5 -0.7467,-0.8213 -1.764,-1.232 -3.052,-1.232 -1.3253,0 -2.38,0.4293 -3.164,1.288 -0.784,0.84 -1.176,2.0627 -1.176,3.668 V 31 h -2.548 V 15.656 h 2.548 v 2.212 c 0.504,-0.8027 1.176,-1.4187 2.016,-1.848 0.8587,-0.4293 1.8013,-0.644 2.828,-0.644 1.288,0 2.4267,0.2893 3.416,0.868 0.9893,0.5787 1.7267,1.428 2.212,2.548 0.4293,-1.0827 1.1387,-1.9227 2.128,-2.52 0.9893,-0.5973 2.0907,-0.896 3.304,-0.896 z m 11.7117,-2.212 c -0.4854,0 -0.896,-0.168 -1.232,-0.504 -0.336,-0.336 -0.504,-0.7467 -0.504,-1.232 0,-0.4853 0.168,-0.896 0.504,-1.232 0.336,-0.336 0.7466,-0.504 1.232,-0.504 0.4666,0 0.8586,0.168 1.176,0.504 0.336,0.336 0.504,0.7467 0.504,1.232 0,0.4853 -0.168,0.896 -0.504,1.232 -0.3174,0.336 -0.7094,0.504 -1.176,0.504 z m 1.232,2.492 V 31 h -2.548 V 15.656 Z m 11.8182,-0.28 c 1.867,0 3.379,0.5693 4.536,1.708 1.158,1.12 1.736,2.744 1.736,4.872 V 31 h -2.52 v -8.68 c 0,-1.5307 -0.382,-2.6973 -1.148,-3.5 -0.765,-0.8213 -1.81,-1.232 -3.136,-1.232 -1.344,0 -2.417,0.42 -3.2196,1.26 -0.784,0.84 -1.176,2.0627 -1.176,3.668 V 31 h -2.548 V 15.656 h 2.548 v 2.184 c 0.504,-0.784 1.1853,-1.3907 2.0436,-1.82 0.878,-0.4293 1.839,-0.644 2.884,-0.644 z m 9.483,7.896 c 0,-1.568 0.317,-2.94 0.952,-4.116 0.634,-1.1947 1.502,-2.1187 2.604,-2.772 1.12,-0.6533 2.361,-0.98 3.724,-0.98 1.344,0 2.51,0.2893 3.5,0.868 0.989,0.5787 1.726,1.3067 2.212,2.184 v -2.8 h 2.576 V 31 h -2.576 v -2.856 c -0.504,0.896 -1.26,1.6427 -2.268,2.24 -0.99,0.5787 -2.147,0.868 -3.472,0.868 -1.363,0 -2.595,-0.336 -3.696,-1.008 -1.102,-0.672 -1.97,-1.6147 -2.604,-2.828 -0.635,-1.2133 -0.952,-2.5947 -0.952,-4.144 z m 12.992,0.028 c 0,-1.1573 -0.234,-2.1653 -0.7,-3.024 -0.467,-0.8587 -1.102,-1.512 -1.904,-1.96 -0.784,-0.4667 -1.652,-0.7 -2.604,-0.7 -0.952,0 -1.82,0.224 -2.604,0.672 -0.784,0.448 -1.41,1.1013 -1.876,1.96 -0.467,0.8587 -0.7,1.8667 -0.7,3.024 0,1.176 0.233,2.2027 0.7,3.08 0.466,0.8587 1.092,1.5213 1.876,1.988 0.784,0.448 1.652,0.672 2.604,0.672 0.952,0 1.82,-0.224 2.604,-0.672 0.802,-0.4667 1.437,-1.1293 1.904,-1.988 0.466,-0.8773 0.7,-1.8947 0.7,-3.052 z m 9.429,-5.152 c 0.448,-0.8773 1.083,-1.5587 1.904,-2.044 0.84,-0.4853 1.858,-0.728 3.052,-0.728 v 2.632 h -0.672 c -2.856,0 -4.284,1.5493 -4.284,4.648 V 31 h -2.548 V 15.656 h 2.548 z m 21.114,-2.492 -9.24,22.568 h -2.632 l 3.024,-7.392 -6.188,-15.176 h 2.828 l 4.816,12.432 4.76,-12.432 z"
       fill="black"
       id="path132"
       style="fill:#000000" />
    <path
       d="M 11.25,15.533 C 9.6831,14.5294 7.86076,13.9972 6,14 4.89299,13.9989 3.7939,14.1866 2.75,14.555 2.60379,14.6067 2.4772,14.7024 2.38766,14.829 2.29812,14.9557 2.25002,15.1069 2.25,15.262 v 14.25 c 2e-5,0.12 0.02882,0.2382 0.08398,0.3447 0.05517,0.1066 0.13509,0.1983 0.23305,0.2676 0.09797,0.0693 0.21112,0.114 0.32996,0.1305 C 3.01583,30.2713 3.13689,30.259 3.25,30.219 4.13333,29.9074 5.06333,29.7488 6,29.75 c 1.995,0 3.823,0.707 5.25,1.886 z m 1.5,16.103 c 1.4764,-1.2219 3.3336,-1.889 5.25,-1.886 0.966,0 1.89,0.166 2.75,0.47 0.1132,0.04 0.2343,0.0523 0.3533,0.0357 0.1189,-0.0165 0.2321,-0.0613 0.3301,-0.1307 0.098,-0.0694 0.1779,-0.1613 0.233,-0.2679 0.0551,-0.1067 0.0837,-0.225 0.0836,-0.3451 v -14.25 c 0,-0.1551 -0.0481,-0.3063 -0.1377,-0.433 C 21.5228,14.7024 21.3962,14.6067 21.25,14.555 20.2061,14.1866 19.107,13.9989 18,14 c -1.8608,-0.0028 -3.6831,0.5294 -5.25,1.533 z"
       fill="#fbbf24"
       id="path134" />
  </g>
</svg>
