<?xml version="1.0" encoding="UTF-8" standalone="no"?>
<svg
   width="30"
   height="30"
   viewBox="0 0 30 30"
   fill="none"
   version="1.1"
   id="svg136"
   shape-rendering="auto"
   xmlns="http://www.w3.org/2000/svg"
   xmlns:svg="http://www.w3.org/2000/svg">
  <defs
     id="defs140" />
  <path
     d="M 13.923079,5.363353 C 11.673171,3.9222861 9.0564771,3.1581014 6.3846164,3.1621219 4.795063,3.1605425 3.2168821,3.4300604 1.7179487,3.959045 1.508006,4.033281 1.3262357,4.1706964 1.1976654,4.3524811 1.0690952,4.5344093 1.0000285,4.751517 0.99999978,4.9742247 V 25.435766 c 2.872e-5,0.172308 0.0413822,0.342032 0.12058622,0.494955 0.079219,0.153066 0.1939755,0.284737 0.3346361,0.384245 0.1406748,0.09951 0.3031467,0.163692 0.4737888,0.187384 0.1706419,0.02369 0.3444717,0.0061 0.5068862,-0.05141 1.2683714,-0.447425 2.6037563,-0.675159 3.9487184,-0.673436 2.8646157,0 5.4894375,1.01518 7.5384635,2.708103 z m 2.153846,23.12226 c 2.11996,-1.754524 4.786709,-2.712411 7.538464,-2.708103 1.387077,0 2.713846,0.238359 3.948717,0.674872 0.162544,0.05744 0.336432,0.07509 0.507303,0.05125 0.170728,-0.02369 0.333272,-0.08802 0.47399,-0.187672 0.140718,-0.09965 0.255447,-0.231611 0.334564,-0.384677 C 28.959083,25.778072 29.000154,25.608207 29,25.435755 V 4.9742247 C 29,4.751517 28.93094,4.5344093 28.802276,4.3524811 28.67377,4.1706964 28.491979,4.033281 28.282052,3.959045 26.783117,3.4300604 25.204923,3.1605425 23.615384,3.1621219 20.943466,3.1581039 18.326829,3.9222861 16.07692,5.363353 Z"
     fill="#fbbf24"
     id="path134"
     style="stroke-width:1.4359" />
</svg>
