<?xml version="1.0" encoding="UTF-8" standalone="no"?>
<svg
   width="192"
   height="192"
   viewBox="0 0 192 192"
   fill="none"
   version="1.1"
   id="svg136"
   shape-rendering="auto"
   sodipodi:docname="favicon.svg"
   inkscape:version="1.2 (dc2aeda, 2022-05-15)"
   inkscape:export-filename="favicon.png"
   inkscape:export-xdpi="96"
   inkscape:export-ydpi="96"
   xmlns:inkscape="http://www.inkscape.org/namespaces/inkscape"
   xmlns:sodipodi="http://sodipodi.sourceforge.net/DTD/sodipodi-0.dtd"
   xmlns="http://www.w3.org/2000/svg"
   xmlns:svg="http://www.w3.org/2000/svg">
  <sodipodi:namedview
     id="namedview135"
     pagecolor="#ffffff"
     bordercolor="#000000"
     borderopacity="0.25"
     inkscape:showpageshadow="2"
     inkscape:pageopacity="0.0"
     inkscape:pagecheckerboard="0"
     inkscape:deskcolor="#d1d1d1"
     showgrid="false"
     inkscape:zoom="1.5472068"
     inkscape:cx="168.69109"
     inkscape:cy="198.74525"
     inkscape:window-width="1920"
     inkscape:window-height="1027"
     inkscape:window-x="1920"
     inkscape:window-y="25"
     inkscape:window-maximized="1"
     inkscape:current-layer="svg136" />
  <defs
     id="defs140" />
  <path
     d="M 88.615393,26.25637 C 73.187453,16.374769 55.24441,11.134645 36.923082,11.162214 26.023289,11.151384 15.201477,12.999507 4.9230764,16.626829 3.4834693,17.135876 2.2370446,18.078153 1.3554197,19.324677 0.47379555,20.572185 1.9534737e-4,22.060923 -1.5726334e-6,23.588062 V 163.89577 C 1.9524737e-4,165.07731 0.28376205,166.24112 0.82687525,167.28974 c 0.54321595,1.0496 1.33011765,1.95248 2.29464745,2.63482 0.9646271,0.68236 2.07872,1.12247 3.2488374,1.28493 1.1701158,0.16244 2.3620912,0.0419 3.4757905,-0.35253 8.6974044,-3.06806 17.8543294,-4.62967 27.0769244,-4.61784 19.643079,0 37.641855,6.96123 51.692318,18.56984 z M 103.38462,184.809 c 14.53687,-12.03102 32.82315,-18.59939 51.69232,-18.56985 9.51139,0 18.60923,1.63446 27.07693,4.6277 1.11457,0.39387 2.30695,0.5149 3.47864,0.35143 1.17071,-0.16245 2.28529,-0.60357 3.25022,-1.2869 0.96493,-0.68332 1.75162,-1.58819 2.29415,-2.63779 0.54254,-1.05059 0.82417,-2.21537 0.82312,-3.3979 V 23.588062 c 0,-1.527139 -0.47357,-3.015877 -1.35583,-4.263385 -0.88118,-1.246524 -2.12776,-2.188801 -3.56725,-2.697847 -10.27842,-3.627323 -21.10032,-5.475446 -32.00001,-5.464616 -18.32172,-0.02755 -36.26438,5.212555 -51.69232,15.094156 z"
     fill="#fbbf24"
     id="path134"
     style="stroke-width:9.84614" />
</svg>
