<svg viewBox="0 0 313 39" fill="none" preserveAspectRatio="xMinYMid" xmlns="http://www.w3.org/2000/svg">
<path d="M9 3C9 1.34315 10.3431 0 12 0H14C15.6569 0 17 1.34315 17 3V5C17 6.65685 15.6569 8 14 8H12C10.3431 8 9 6.65685 9 5V3Z" fill="#FFAE0C"/>
<path d="M18 12C18 10.3431 19.3431 9 21 9H23C24.6569 9 26 10.3431 26 12V14C26 15.6569 24.6569 17 23 17H21C19.3431 17 18 15.6569 18 14V12Z" fill="#FFAE0C"/>
<path d="M9 34C9 32.3431 10.3431 31 12 31H14C15.6569 31 17 32.3431 17 34V36C17 37.6569 15.6569 39 14 39H12C10.3431 39 9 37.6569 9 36V34Z" fill="#FFAE0C"/>
<path d="M0 14V12C0 10.3431 1.34315 9 3 9H14C15.6569 9 17 10.3431 17 12V27C17 28.6569 15.6569 30 14 30H12C10.3431 30 9 28.6569 9 27V17H3C1.34315 17 0 15.6569 0 14Z" fill="#FFAE0C"/>
<path d="M38.51 31L47.112 6.996H50.682L59.284 31H55.816L53.402 24.098H44.358L41.944 31H38.51ZM45.242 21.31H52.518L49.866 13.728L48.914 10.294H48.846C48.506 11.7447 48.2 12.8893 47.928 13.728L45.242 21.31ZM60.844 22.398C60.844 19.8367 61.7053 17.6947 63.428 15.972C65.1733 14.2493 67.3833 13.388 70.058 13.388C72.778 13.388 74.9313 14.2267 76.518 15.904L74.954 18.216C73.6393 16.9013 72.0527 16.244 70.194 16.244C68.4713 16.244 67.0433 16.8333 65.91 18.012C64.7767 19.168 64.21 20.6187 64.21 22.364C64.21 24.132 64.7767 25.6053 65.91 26.784C67.066 27.9627 68.528 28.552 70.296 28.552C71.248 28.552 72.2 28.348 73.152 27.94C74.1267 27.5093 74.9427 26.9427 75.6 26.24L76.926 28.654C76.1327 29.4927 75.124 30.1613 73.9 30.66C72.676 31.1587 71.3953 31.408 70.058 31.408C67.3607 31.408 65.1507 30.558 63.428 28.858C61.7053 27.158 60.844 25.0047 60.844 22.398ZM81.2074 24.71V16.652H78.9634V13.966H81.2754V9.07H84.5054V13.966H88.6534V16.652H84.5054V24.336C84.5054 24.9933 84.596 25.5713 84.7774 26.07C84.9587 26.546 85.174 26.92 85.4234 27.192C85.6954 27.464 86.0014 27.6793 86.3414 27.838C86.704 27.9967 87.0214 28.0987 87.2934 28.144C87.588 28.1893 87.8827 28.212 88.1774 28.212C88.472 28.212 88.7327 28.1893 88.9594 28.144V31.068C88.4154 31.136 88.03 31.17 87.8034 31.17C87.282 31.17 86.7607 31.1247 86.2394 31.034C85.7407 30.966 85.174 30.8073 84.5394 30.558C83.9047 30.286 83.3494 29.9347 82.8734 29.504C82.42 29.0507 82.0234 28.416 81.6834 27.6C81.366 26.7613 81.2074 25.798 81.2074 24.71ZM92.2789 10.328V6.996H95.6789V10.328H92.2789ZM92.3469 31V13.796H95.6449V31H92.3469ZM105.27 31L98.8101 13.796H102.312L106.494 25.424L107.106 27.77H107.174C107.355 26.8407 107.548 26.0587 107.752 25.424L111.934 13.796H115.402L109.044 31H105.27ZM117.09 22.398C117.09 19.7007 117.906 17.5247 119.538 15.87C121.17 14.2153 123.233 13.388 125.726 13.388C128.061 13.388 129.885 14.1587 131.2 15.7C132.515 17.2187 133.172 19.134 133.172 21.446C133.172 21.7407 133.127 22.2053 133.036 22.84H120.524C120.615 24.6307 121.215 26.036 122.326 27.056C123.459 28.0533 124.831 28.552 126.44 28.552C128.321 28.552 130.01 27.8833 131.506 26.546L132.9 28.96C132.084 29.708 131.064 30.3087 129.84 30.762C128.639 31.1927 127.437 31.408 126.236 31.408C123.561 31.408 121.363 30.558 119.64 28.858C117.94 27.1353 117.09 24.982 117.09 22.398ZM120.626 20.46H129.84C129.795 19.032 129.375 17.9213 128.582 17.128C127.811 16.3347 126.837 15.938 125.658 15.938C124.366 15.938 123.255 16.346 122.326 17.162C121.419 17.9553 120.853 19.0547 120.626 20.46ZM136.288 18.862C136.288 15.3487 137.433 12.4247 139.722 10.09C142.034 7.75533 144.958 6.588 148.494 6.588C152.143 6.588 155.067 7.642 157.266 9.75L155.566 12.266C154.682 11.4727 153.605 10.838 152.336 10.362C151.089 9.886 149.854 9.648 148.63 9.648C145.91 9.648 143.745 10.5207 142.136 12.266C140.549 14.0113 139.756 16.1987 139.756 18.828C139.756 21.48 140.572 23.724 142.204 25.56C143.836 27.396 146.001 28.314 148.698 28.314C150.035 28.314 151.35 28.042 152.642 27.498C153.957 26.9313 155.101 26.1607 156.076 25.186L157.878 27.6C155.339 30.1387 152.245 31.408 148.596 31.408C144.947 31.408 141.977 30.218 139.688 27.838C137.421 25.4353 136.288 22.4433 136.288 18.862ZM161.509 31V6.996H164.807V15.904L164.671 17.332H164.739C165.215 16.3347 166.02 15.428 167.153 14.612C168.286 13.796 169.635 13.388 171.199 13.388C175.12 13.388 177.081 15.5867 177.081 19.984V31H173.783V20.732C173.783 19.3493 173.556 18.284 173.103 17.536C172.672 16.788 171.822 16.414 170.553 16.414C168.898 16.414 167.527 17.026 166.439 18.25C165.351 19.4513 164.807 20.9813 164.807 22.84V31H161.509ZM181.995 31V13.796H185.191V16.89L185.089 18.148H185.157C185.588 16.8333 186.291 15.7453 187.265 14.884C188.24 14.0227 189.362 13.592 190.631 13.592C190.858 13.592 191.153 13.6147 191.515 13.66V16.924C191.334 16.8787 191.017 16.856 190.563 16.856C188.841 16.856 187.526 17.5587 186.619 18.964C185.735 20.3467 185.293 21.9787 185.293 23.86V31H181.995ZM194.711 10.328V6.996H198.111V10.328H194.711ZM194.779 31V13.796H198.077V31H194.779ZM201.684 28.892L203.248 26.648C204.63 27.9853 206.319 28.654 208.314 28.654C209.198 28.654 209.9 28.4613 210.422 28.076C210.966 27.668 211.238 27.1127 211.238 26.41C211.238 25.8207 210.932 25.3107 210.32 24.88C209.708 24.4493 208.971 24.0753 208.11 23.758C207.248 23.4407 206.387 23.0893 205.526 22.704C204.664 22.3187 203.928 21.7633 203.316 21.038C202.704 20.29 202.398 19.3947 202.398 18.352C202.398 16.788 202.987 15.5753 204.166 14.714C205.344 13.83 206.818 13.388 208.586 13.388C210.898 13.388 212.756 14.0227 214.162 15.292L212.836 17.672C212.337 17.196 211.68 16.822 210.864 16.55C210.07 16.278 209.277 16.142 208.484 16.142C207.6 16.142 206.886 16.3233 206.342 16.686C205.82 17.0487 205.56 17.5813 205.56 18.284C205.56 18.896 205.866 19.4173 206.478 19.848C207.09 20.2787 207.826 20.6527 208.688 20.97C209.549 21.2647 210.41 21.6047 211.272 21.99C212.156 22.3753 212.904 22.942 213.516 23.69C214.128 24.4153 214.434 25.2993 214.434 26.342C214.434 27.8153 213.856 29.028 212.7 29.98C211.544 30.932 210.059 31.408 208.246 31.408C205.526 31.408 203.338 30.5693 201.684 28.892ZM219.067 24.71V16.652H216.823V13.966H219.135V9.07H222.365V13.966H226.513V16.652H222.365V24.336C222.365 24.9933 222.455 25.5713 222.637 26.07C222.818 26.546 223.033 26.92 223.283 27.192C223.555 27.464 223.861 27.6793 224.201 27.838C224.563 27.9967 224.881 28.0987 225.153 28.144C225.447 28.1893 225.742 28.212 226.037 28.212C226.331 28.212 226.592 28.1893 226.819 28.144V31.068C226.275 31.136 225.889 31.17 225.663 31.17C225.141 31.17 224.62 31.1247 224.099 31.034C223.6 30.966 223.033 30.8073 222.399 30.558C221.764 30.286 221.209 29.9347 220.733 29.504C220.279 29.0507 219.883 28.416 219.543 27.6C219.225 26.7613 219.067 25.798 219.067 24.71ZM230.138 10.328V6.996H233.538V10.328H230.138ZM230.206 31V13.796H233.504V31H230.206ZM237.145 26.308C237.145 25.0387 237.497 23.9733 238.199 23.112C238.902 22.2507 239.831 21.6387 240.987 21.276C242.166 20.8907 243.254 20.63 244.251 20.494C245.249 20.358 246.303 20.29 247.413 20.29H248.297V19.95C248.297 17.434 247.039 16.176 244.523 16.176C242.869 16.176 241.259 16.7313 239.695 17.842L238.369 15.428C239.072 14.8387 240.024 14.3513 241.225 13.966C242.427 13.5807 243.617 13.388 244.795 13.388C246.971 13.388 248.649 13.966 249.827 15.122C251.006 16.278 251.595 17.944 251.595 20.12V31H248.501V29.266L248.603 27.906H248.535C248.014 28.926 247.243 29.7647 246.223 30.422C245.226 31.0793 244.115 31.408 242.891 31.408C241.327 31.408 239.979 30.9433 238.845 30.014C237.712 29.0847 237.145 27.8493 237.145 26.308ZM240.443 26.036C240.443 26.784 240.727 27.43 241.293 27.974C241.86 28.518 242.653 28.79 243.673 28.79C245.033 28.79 246.144 28.2233 247.005 27.09C247.867 25.9567 248.297 24.6987 248.297 23.316V22.67H247.447C242.778 22.67 240.443 23.792 240.443 26.036ZM256.503 31V13.796H259.699V16.142L259.597 17.434H259.665C260.096 16.4593 260.866 15.5413 261.977 14.68C263.11 13.8187 264.516 13.388 266.193 13.388C270.114 13.388 272.075 15.5867 272.075 19.984V31H268.777V20.732C268.777 19.3493 268.55 18.284 268.097 17.536C267.666 16.788 266.816 16.414 265.547 16.414C263.892 16.414 262.521 17.026 261.433 18.25C260.345 19.4513 259.801 20.9473 259.801 22.738V31H256.503ZM276.921 10.328V6.996H280.321V10.328H276.921ZM276.989 31V13.796H280.287V31H276.989ZM286.071 24.71V16.652H283.827V13.966H286.139V9.07H289.369V13.966H293.517V16.652H289.369V24.336C289.369 24.9933 289.459 25.5713 289.641 26.07C289.822 26.546 290.037 26.92 290.287 27.192C290.559 27.464 290.865 27.6793 291.205 27.838C291.567 27.9967 291.885 28.0987 292.157 28.144C292.451 28.1893 292.746 28.212 293.041 28.212C293.335 28.212 293.596 28.1893 293.823 28.144V31.068C293.279 31.136 292.893 31.17 292.667 31.17C292.145 31.17 291.624 31.1247 291.103 31.034C290.604 30.966 290.037 30.8073 289.403 30.558C288.768 30.286 288.213 29.9347 287.737 29.504C287.283 29.0507 286.887 28.416 286.547 27.6C286.229 26.7613 286.071 25.798 286.071 24.71ZM296.36 34.57C296.995 35.0687 297.652 35.318 298.332 35.318C299.715 35.318 300.757 34.468 301.46 32.768L302.31 30.796L295.102 13.796H298.808L303.126 25.05L303.772 27.124H303.84C304.021 26.3533 304.214 25.6733 304.418 25.084L308.6 13.796H312.17L304.078 34.094C303.579 35.4087 302.831 36.406 301.834 37.086C300.859 37.7887 299.749 38.14 298.502 38.14C297.935 38.14 297.38 38.0493 296.836 37.868C296.292 37.6867 295.884 37.5053 295.612 37.324L295.204 37.086L296.36 34.57Z" fill="#FFFFFF"/>
</svg>
